<svg width="24" height="24" viewBox="0 0 24 24" fill="none" xmlns="http://www.w3.org/2000/svg">
<path d="M12.0001 13.5914L7.19575 18.3957C6.98451 18.607 6.7193 18.7126 6.4001 18.7126C6.0809 18.7126 5.81568 18.607 5.60445 18.3957C5.39321 18.1845 5.2876 17.9193 5.2876 17.6001C5.2876 17.2809 5.39321 17.0157 5.60445 16.8044L10.4088 12.0001L5.60445 7.19575C5.39321 6.98451 5.2876 6.7193 5.2876 6.4001C5.2876 6.0809 5.39321 5.81568 5.60445 5.60445C5.81568 5.39321 6.0809 5.2876 6.4001 5.2876C6.7193 5.2876 6.98451 5.39321 7.19575 5.60445L12.0001 10.4088L16.8044 5.60445C17.0157 5.39321 17.2809 5.2876 17.6001 5.2876C17.9193 5.2876 18.1845 5.39321 18.3957 5.60445C18.607 5.81568 18.7126 6.0809 18.7126 6.4001C18.7126 6.7193 18.607 6.98451 18.3957 7.19575L13.5914 12.0001L18.3957 16.8044C18.607 17.0157 18.7126 17.2809 18.7126 17.6001C18.7126 17.9193 18.607 18.1845 18.3957 18.3957C18.1845 18.607 17.9193 18.7126 17.6001 18.7126C17.2809 18.7126 17.0157 18.607 16.8044 18.3957L12.0001 13.5914Z" fill="#A0A0A0"/>
</svg>
