<svg width="28" height="20" viewBox="0 0 28 20" fill="none" xmlns="http://www.w3.org/2000/svg">
<path d="M25.903 0.828125H2.09699C0.93882 0.828125 0 1.76695 0 2.92512V17.076C0 18.2341 0.93882 19.173 2.09699 19.173H25.903C27.0611 19.173 28 18.2342 28 17.076V2.92512C28 1.76695 27.0612 0.828125 25.903 0.828125Z" fill="#41479B"/>
<path d="M27.971 2.57851C27.8057 1.58544 26.943 0.828125 25.903 0.828125H25.3574L16.4138 6.68773V0.82818H11.5862V6.68778L2.64261 0.82818H2.09699C1.057 0.82818 0.194305 1.58544 0.0290391 2.57856L7.67315 7.58684H0V12.4144H7.67315L0.0290391 17.4226C0.194305 18.4157 1.057 19.173 2.09699 19.173H2.64261L11.5862 13.3134V19.173H16.4138V13.3134L25.3574 19.173H25.903C26.943 19.173 27.8057 18.4157 27.971 17.4226L20.3269 12.4143H28V7.58673H20.3269L27.971 2.57851Z" fill="#F5F5F5"/>
<path d="M15.4483 0.828125H12.5517V8.55224H0V11.4488H12.5517V19.1729H15.4483V11.4488H28V8.55224H15.4483V0.828125Z" fill="#FF4B55"/>
<path d="M1.35534 19.0375L11.5591 12.4141H9.78569L0.503906 18.4391C0.731023 18.7042 1.02289 18.9119 1.35534 19.0375Z" fill="#FF4B55"/>
<path d="M18.9433 12.4141H17.1699L27.0528 18.8292C27.3294 18.6476 27.5602 18.4022 27.7248 18.1141L18.9433 12.4141Z" fill="#FF4B55"/>
<path d="M0.220703 1.98774L8.84656 7.58704H10.62L0.845563 1.24219C0.583117 1.43753 0.368359 1.69292 0.220703 1.98774Z" fill="#FF4B55"/>
<path d="M18.1875 7.58707L27.4863 1.55094C27.2566 1.28674 26.9625 1.08024 26.6277 0.957031L16.4141 7.58707H18.1875Z" fill="#FF4B55"/>
</svg>
