<svg width="15" height="17" viewBox="0 0 15 17" fill="none" xmlns="http://www.w3.org/2000/svg">
<path d="M9.16667 0H5.83333C2.61667 0 0 2.66903 0 5.95006V8.50009C0 10.8057 1.30208 12.8946 3.33333 13.8785V16.7197C3.33333 16.9662 3.63542 17.0937 3.80625 16.9194L6.22708 14.4523H9.16667C12.3833 14.4523 15 11.7832 15 8.50009V5.95006C15 2.66903 12.3833 0 9.16667 0ZM11.35 11.1523L10.5062 11.9938C9.61875 12.88 7.30208 11.8685 5.26042 9.74131C3.21875 7.61204 2.32292 5.22777 3.16667 4.34163L4.01042 3.50012C4.32083 3.18987 4.84792 3.19625 5.19583 3.51287L6.4125 4.78151C6.84583 5.23414 6.6625 5.99278 6.08958 6.16703C5.69375 6.29665 5.425 6.74078 5.55208 7.14454C5.7625 8.08805 6.93542 9.26743 7.81042 9.50119C8.20417 9.59469 8.64583 9.37581 8.78333 8.97418C8.96458 8.39405 9.7125 8.22192 10.1479 8.67668L11.3625 9.94319C11.6667 10.2596 11.6625 10.7975 11.35 11.1523ZM8.25833 4.03754C8.175 4.03754 8.09167 4.04179 8.01042 4.05242C7.85833 4.06942 7.72083 3.95679 7.70417 3.80166C7.6875 3.64654 7.79792 3.50629 7.95 3.48929C8.05208 3.47654 8.15625 3.47229 8.25833 3.47229C9.78958 3.47229 11.0354 4.74305 11.0354 6.30494C11.0354 6.40907 11.0312 6.51532 11.0187 6.61944C11.0021 6.77245 10.8625 6.8872 10.7125 6.8702C10.5625 6.8532 10.45 6.71082 10.4667 6.55782C10.475 6.47494 10.4812 6.38994 10.4812 6.30494C10.4812 5.05543 9.48333 4.03754 8.25833 4.03754ZM9.925 6.30494C9.925 6.46007 9.79792 6.58757 9.64583 6.58757C9.49583 6.58757 9.36875 6.46007 9.36875 6.30494C9.36875 5.68018 8.87083 5.1723 8.25833 5.1723C8.10417 5.1723 7.97917 5.0448 7.97917 4.88755C7.97917 4.73242 8.10417 4.60492 8.25833 4.60492C9.17708 4.60492 9.925 5.36781 9.925 6.30494ZM12.0437 7.22083C12.0083 7.37383 11.8479 7.46945 11.7 7.42908C11.5563 7.3887 11.4688 7.2357 11.5021 7.08907C11.5625 6.83407 11.5917 6.57057 11.5917 6.30494C11.5917 4.43067 10.0958 2.90491 8.25833 2.90491C8.17292 2.90491 8.08542 2.90703 8 2.91553C7.84792 2.92616 7.71458 2.80928 7.70208 2.65415C7.69167 2.4969 7.80625 2.3609 7.95833 2.35027C8.05833 2.34177 8.15833 2.33752 8.25833 2.33752C10.4021 2.33752 12.1479 4.11829 12.1479 6.30494C12.1479 6.61307 12.1125 6.9212 12.0437 7.22083Z" fill="#665CAC"/>
</svg>
