<svg xmlns="http://www.w3.org/2000/svg" xmlns:xlink="http://www.w3.org/1999/xlink" width="56" height="56">
  <defs>
    <style type="text/css">
      <![CDATA[
        .black {
          fill: black;
        }
		.black:hover{
			 fill: white;
		}
      ]]>
    </style>
  </defs>
  <g id="cooker">
    <path id="Vector" fill-rule="evenodd" class="black" clip-rule="evenodd" d="M20.3997 48.3999V50H18.0003V48.3999H20.3997ZM38.8005 48.3999V50H36.4011V48.3999H38.8005ZM39.8008 21.9999V47.6005H17V21.9999H39.8008ZM20.0008 26.8003V39.5999C20.0008 39.8213 20.1797 40.0003 20.3997 40.0003C20.6212 40.0003 20.8001 39.8213 20.8001 39.5999V26.8003C20.8001 26.5788 20.6212 26.3999 20.3997 26.3999C20.1797 26.3999 20.0008 26.5788 20.0008 26.8003ZM39.8008 21.2005H17V6H39.8008V21.2005ZM20.0008 11.1993V15.9997C20.0008 16.2212 20.1797 16.4001 20.3997 16.4001C20.6212 16.4001 20.8001 16.2212 20.8001 15.9997V11.1993C20.8001 10.9793 20.6212 10.8004 20.3997 10.8004C20.1797 10.8004 20.0008 10.9793 20.0008 11.1993Z" fill="white"/>
  </g>
</svg>
