<svg width="56" height="56" viewBox="0 0 56 56" fill="none" xmlns="http://www.w3.org/2000/svg">
<g id="TV">
<g id="Group 1000005941">
<path id="Vector" d="M50.2379 13.5428H5.36176V38.3428H50.2379V13.5428Z" fill="black"/>
<path id="Vector" d="M49.8425 11.4171C50.6033 11.4171 51.2222 12.0537 51.2222 12.8362V38.3409C51.2222 39.1234 50.6033 39.76 49.8425 39.76H5.75734C4.99661 39.76 4.37772 39.1234 4.37772 38.3409V12.8362C4.37772 12.0537 4.99661 11.4171 5.75734 11.4171H49.8425ZM49.8425 10H5.75734C4.23447 10 2.99994 11.2698 2.99994 12.8362V38.3409C2.99994 39.9073 4.23447 41.1771 5.75734 41.1771H9.63832L7.13327 45.4286H9.58265L12.0877 41.1771H43.5122L46.0172 45.4286H48.4666L45.9616 41.1771H49.8425C51.3654 41.1771 52.5999 39.9073 52.5999 38.3409V12.8362C52.5999 11.2698 51.3654 10 49.8425 10Z" fill="black"/>
</g>
</g>
</svg>
