<svg width="56" height="56" viewBox="0 0 56 56" fill="none" xmlns="http://www.w3.org/2000/svg">
<g id="conditioners">
<path id="Vector" fill="black" fill-rule="evenodd" clip-rule="evenodd" d="M32.5645 32.5833V48.1667C32.5645 49.1787 33.3858 50 34.3978 50C35.4098 50 36.2312 49.1787 36.2312 48.1667V32.5833C36.2312 31.5713 35.4098 30.75 34.3978 30.75C33.3858 30.75 32.5645 31.5713 32.5645 32.5833ZM22.0228 32.5833V48.1667C22.0228 49.1787 22.8442 50 23.8562 50C24.8682 50 25.6895 49.1787 25.6895 48.1667V32.5833C25.6895 31.5713 24.8682 30.75 23.8562 30.75C22.8442 30.75 22.0228 31.5713 22.0228 32.5833ZM44.406 30.7518L44.3125 30.75C43.3005 30.75 42.4792 31.5713 42.4792 32.5833V39.3997C42.4792 43.1525 43.9697 46.7495 46.6225 49.4023C47.2825 50.0623 47.9187 49.9395 47.9187 49.9395L48.0397 49.8717C48.5713 49.5545 50.61 48.2052 49.2148 46.81C47.2495 44.8447 46.1458 42.179 46.1458 39.3997V32.5833C46.1458 31.6025 45.3758 30.8013 44.406 30.7518ZM7.78517 46.81C8.00333 46.5918 7.248 47.3618 7.248 48.1062C7.248 49.1182 8.06933 49.9395 9.08133 49.9395C9.08133 49.9395 9.7175 50.0623 10.3775 49.4023C13.0303 46.7495 14.5208 43.1525 14.5208 39.3997V32.5833C14.5208 31.5713 13.6995 30.75 12.6875 30.75C11.6755 30.75 10.8542 31.5713 10.8542 32.5833V39.3997C10.8542 42.179 9.7505 44.8447 7.78517 46.81ZM1 7.83333V26.1667C1 27.1787 1.82133 28 2.83333 28H54.1667L54.4453 27.978L54.7973 27.8882L55.1182 27.7342L55.3987 27.5233L55.6352 27.263L55.8185 26.9623L55.9432 26.625L55.9963 26.284L56 26.1667V7.83333C56 6.82133 55.1787 6 54.1667 6H2.83333C1.82133 6 1 6.82133 1 7.83333ZM4.66667 24.3333V20.6667H52.3333V24.3333H4.66667ZM37.6667 15.1667H41.3333C42.3453 15.1667 43.1667 14.3453 43.1667 13.3333C43.1667 12.3213 42.3453 11.5 41.3333 11.5H37.6667C36.6547 11.5 35.8333 12.3213 35.8333 13.3333C35.8333 14.3453 36.6547 15.1667 37.6667 15.1667Z" />
</g>
</svg>
