<svg width="56" height="56" viewBox="0 0 56 56" fill="none" xmlns="http://www.w3.org/2000/svg">
<g id="cooker">
<path id="Vector" fill-rule="evenodd" clip-rule="evenodd" d="M53.04 6.88C53.04 6.39424 52.6458 6 52.16 6H2.88C2.39424 6 2 6.39424 2 6.88V49.12C2 49.6058 2.39424 50 2.88 50H52.16C52.6458 50 53.04 49.6058 53.04 49.12V6.88ZM48.64 20.96C48.64 20.4742 48.2458 20.08 47.76 20.08H7.28C6.79424 20.08 6.4 20.4742 6.4 20.96V45.6C6.4 46.0858 6.79424 46.48 7.28 46.48H47.76C48.2458 46.48 48.64 46.0858 48.64 45.6V20.96ZM46.88 21.84V44.72H8.16V21.84H46.88ZM9.92 17.44H45.12C45.6058 17.44 46 17.0458 46 16.56C46 16.0742 45.6058 15.68 45.12 15.68H9.92C9.43424 15.68 9.04 16.0742 9.04 16.56C9.04 17.0458 9.43424 17.44 9.92 17.44ZM11.68 8.64C10.2227 8.64 9.04 9.82272 9.04 11.28C9.04 12.7373 10.2227 13.92 11.68 13.92C13.1373 13.92 14.32 12.7373 14.32 11.28C14.32 9.82272 13.1373 8.64 11.68 8.64ZM20.48 8.64C19.0227 8.64 17.84 9.82272 17.84 11.28C17.84 12.7373 19.0227 13.92 20.48 13.92C21.9373 13.92 23.12 12.7373 23.12 11.28C23.12 9.82272 21.9373 8.64 20.48 8.64ZM29.28 8.64C27.8227 8.64 26.64 9.82272 26.64 11.28C26.64 12.7373 27.8227 13.92 29.28 13.92C30.7373 13.92 31.92 12.7373 31.92 11.28C31.92 9.82272 30.7373 8.64 29.28 8.64ZM11.68 10.4C12.1658 10.4 12.56 10.7942 12.56 11.28C12.56 11.7658 12.1658 12.16 11.68 12.16C11.1942 12.16 10.8 11.7658 10.8 11.28C10.8 10.7942 11.1942 10.4 11.68 10.4ZM20.48 10.4C20.9658 10.4 21.36 10.7942 21.36 11.28C21.36 11.7658 20.9658 12.16 20.48 12.16C19.9942 12.16 19.6 11.7658 19.6 11.28C19.6 10.7942 19.9942 10.4 20.48 10.4ZM29.28 10.4C29.7658 10.4 30.16 10.7942 30.16 11.28C30.16 11.7658 29.7658 12.16 29.28 12.16C28.7942 12.16 28.4 11.7658 28.4 11.28C28.4 10.7942 28.7942 10.4 29.28 10.4Z" fill="black"/>
</g>
</svg>
