<svg width="56" height="56" viewBox="0 0 56 56" fill="none" xmlns="http://www.w3.org/2000/svg">
<g id="Dishwasher">
<path id="Vector" fill-rule="evenodd" clip-rule="evenodd" d="M11 7.45455V48.5455C11 49.3484 11.6516 50 12.4545 50H43.7535L44.0385 49.9665L44.3091 49.8793L44.5549 49.7411L44.7687 49.5622L44.9433 49.344L45.0742 49.0953L45.1556 48.8204L45.1818 48.5542V16.5455V7.45455C45.1818 6.65164 44.5302 6 43.7273 6H12.4545C11.6516 6 11 6.65164 11 7.45455ZM42.2727 45.6364V47.0909H13.9091V45.6364H42.2727ZM42.2727 8.90909V15.0909H13.9091V8.90909H42.2727ZM23 13.6364H25.9091C26.712 13.6364 27.3636 12.9847 27.3636 12.1818C27.3636 11.3789 26.712 10.7273 25.9091 10.7273H23C22.1971 10.7273 21.5455 11.3789 21.5455 12.1818C21.5455 12.9847 22.1971 13.6364 23 13.6364ZM30.2727 13.6364H33.1818C33.9847 13.6364 34.6364 12.9847 34.6364 12.1818C34.6364 11.3789 33.9847 10.7273 33.1818 10.7273H30.2727C29.4698 10.7273 28.8182 11.3789 28.8182 12.1818C28.8182 12.9847 29.4698 13.6364 30.2727 13.6364Z" fill="black"/>
</g>
</svg>
