<svg width="56" height="56" viewBox="0 0 56 56" fill="none" xmlns="http://www.w3.org/2000/svg">
<g id="Washing Machine">
<path id="Vector" fill-rule="evenodd" clip-rule="evenodd" d="M9 7.46667V48.5333C9 49.3429 9.65707 50 10.4667 50H45.6667C46.4763 50 47.1333 49.3429 47.1333 48.5333V7.46667C47.1333 6.65707 46.4763 6 45.6667 6H10.4667C9.65707 6 9 6.65707 9 7.46667ZM14.3856 32.4C14.3856 39.9504 20.5163 46.0811 28.0667 46.0811C33.6708 46.0811 38.4932 42.7033 40.6067 37.8736L40.6081 37.8721C41.34 36.1957 41.7477 34.3448 41.7477 32.4C41.7477 24.8496 35.6171 18.7189 28.0667 18.7189C20.5163 18.7189 14.3856 24.8496 14.3856 32.4ZM15.6 32.4C15.6 39.2801 21.1865 44.8667 28.0667 44.8667C33.1736 44.8667 37.5677 41.7881 39.4935 37.3881L39.4949 37.3867C40.1623 35.8584 40.5333 34.1717 40.5333 32.4C40.5333 25.5199 34.9468 19.9333 28.0667 19.9333C21.1865 19.9333 15.6 25.5199 15.6 32.4ZM37.1395 35.3333C37.4387 34.4093 37.6 33.4237 37.6 32.4C37.6 27.1391 33.3276 22.8667 28.0667 22.8667C23.3044 22.8667 19.3517 26.3676 18.6463 30.9333H25.8696C27.8936 30.9333 29.5333 32.5731 29.5333 34.5971C29.5333 34.5985 29.5333 34.6015 29.5333 34.6029C29.5333 34.7965 29.6096 34.9828 29.7475 35.1192C29.8839 35.2571 30.0701 35.3333 30.2637 35.3333H37.1395ZM44.2 14.0667H11.9333V8.93333H44.2V14.0667ZM27.7 12.9667H29.9C30.7096 12.9667 31.3667 12.3096 31.3667 11.5C31.3667 10.6904 30.7096 10.0333 29.9 10.0333H27.7C26.8904 10.0333 26.2333 10.6904 26.2333 11.5C26.2333 12.3096 26.8904 12.9667 27.7 12.9667ZM15.9667 12.9667H20.3667C21.1763 12.9667 21.8333 12.3096 21.8333 11.5C21.8333 10.6904 21.1763 10.0333 20.3667 10.0333H15.9667C15.1571 10.0333 14.5 10.6904 14.5 11.5C14.5 12.3096 15.1571 12.9667 15.9667 12.9667Z" fill="black"/>
</g>
</svg>
