<svg width="24" height="24" viewBox="0 0 24 24" fill="none" xmlns="http://www.w3.org/2000/svg">
<path fill-rule="evenodd" clip-rule="evenodd" d="M6.30078 13.4998C6.30078 12.2848 7.28575 11.2998 8.50078 11.2998C9.71581 11.2998 10.7008 12.2848 10.7008 13.4998C10.7008 14.7148 9.71581 15.6998 8.50078 15.6998C7.28575 15.6998 6.30078 14.7148 6.30078 13.4998ZM8.50078 12.6998C8.05895 12.6998 7.70078 13.058 7.70078 13.4998C7.70078 13.9416 8.05895 14.2998 8.50078 14.2998C8.94261 14.2998 9.30078 13.9416 9.30078 13.4998C9.30078 13.058 8.94261 12.6998 8.50078 12.6998Z" fill="url(#paint0_linear_1_4031)"/>
<path fill-rule="evenodd" clip-rule="evenodd" d="M15.5008 11.2998C14.2858 11.2998 13.3008 12.2848 13.3008 13.4998C13.3008 14.7148 14.2858 15.6998 15.5008 15.6998C16.7158 15.6998 17.7008 14.7148 17.7008 13.4998C17.7008 12.2848 16.7158 11.2998 15.5008 11.2998ZM14.7008 13.4998C14.7008 13.058 15.059 12.6998 15.5008 12.6998C15.9426 12.6998 16.3008 13.058 16.3008 13.4998C16.3008 13.9416 15.9426 14.2998 15.5008 14.2998C15.059 14.2998 14.7008 13.9416 14.7008 13.4998Z" fill="url(#paint1_linear_1_4031)"/>
<path fill-rule="evenodd" clip-rule="evenodd" d="M9.30078 2.9998C9.30078 1.50864 10.5096 0.299805 12.0008 0.299805C13.492 0.299805 14.7008 1.50864 14.7008 2.9998C14.7008 4.13769 13.9969 5.11116 13.0008 5.50857V6.2998H16.0008C18.5965 6.2998 20.7008 8.40407 20.7008 10.9998V12.2998H23.7008V18.6998H20.7008V22.6998H3.30078V18.6998H0.300781V12.2998H3.30078V10.9998C3.30078 8.40407 5.40504 6.2998 8.00078 6.2998H11.0008V5.50857C10.0047 5.11116 9.30078 4.13769 9.30078 2.9998ZM4.70078 21.2998H6.30078V17.2998H17.7008V21.2998H19.3008V10.9998C19.3008 9.17727 17.8233 7.6998 16.0008 7.6998H8.00078C6.17824 7.6998 4.70078 9.17727 4.70078 10.9998V21.2998ZM3.30078 13.6998H1.70078V17.2998H3.30078V13.6998ZM12.0008 1.6998C11.2828 1.6998 10.7008 2.28183 10.7008 2.9998C10.7008 3.71778 11.2828 4.2998 12.0008 4.2998C12.7188 4.2998 13.3008 3.71778 13.3008 2.9998C13.3008 2.28183 12.7188 1.6998 12.0008 1.6998ZM13.0008 18.6998V21.2998H11.0008V18.6998H13.0008ZM16.3008 18.6998V21.2998H14.7008V18.6998H16.3008ZM9.30078 18.6998H7.70078V21.2998H9.30078V18.6998ZM20.7008 13.6998V17.2998H22.3008V13.6998H20.7008Z" fill="url(#paint2_linear_1_4031)"/>
<defs>
<linearGradient id="paint0_linear_1_4031" x1="12.0008" y1="0.299805" x2="12.0008" y2="22.6998" gradientUnits="userSpaceOnUse">
<stop stop-color="#FFAB2D"/>
<stop offset="1" stop-color="#FFA132"/>
</linearGradient>
<linearGradient id="paint1_linear_1_4031" x1="12.0008" y1="0.299805" x2="12.0008" y2="22.6998" gradientUnits="userSpaceOnUse">
<stop stop-color="#FFAB2D"/>
<stop offset="1" stop-color="#FFA132"/>
</linearGradient>
<linearGradient id="paint2_linear_1_4031" x1="12.0008" y1="0.299805" x2="12.0008" y2="22.6998" gradientUnits="userSpaceOnUse">
<stop stop-color="#FFAB2D"/>
<stop offset="1" stop-color="#FFA132"/>
</linearGradient>
</defs>
</svg>
