<svg width="16" height="16" viewBox="0 0 16 16" fill="none" xmlns="http://www.w3.org/2000/svg">
<path d="M8 16C12.4183 16 16 12.4183 16 8C16 3.58172 12.4183 0 8 0C3.58172 0 0 3.58172 0 8C0 12.4183 3.58172 16 8 16Z" fill="#039BE5"/>
<path d="M3.41906 7.88986L11.4006 5.03494C11.7711 4.91079 12.0946 5.11878 11.9746 5.63844L11.9752 5.6378L10.6162 11.5774C10.5155 11.9985 10.2458 12.1009 9.86845 11.9025L7.79891 10.4875L6.8007 11.3796C6.69032 11.482 6.59719 11.5684 6.38334 11.5684L6.53028 9.61459L10.3658 6.4C10.5328 6.26369 10.3286 6.18689 10.1085 6.32257L5.36857 9.09109L3.32524 8.49976C2.88167 8.3692 2.87201 8.08825 3.41906 7.88986Z" fill="white"/>
</svg>
