<svg width="15" height="15" viewBox="0 0 15 15" fill="none" xmlns="http://www.w3.org/2000/svg">
<path d="M0 15L1.05959 11.1483C0.405852 10.0211 0.0621901 8.74222 0.0625632 7.4324C0.0641802 3.33417 3.41461 0 7.53122 0C9.52926 0.000866702 11.4045 0.774948 12.8144 2.17986C14.2246 3.58477 15.0007 5.45225 15 7.43822C14.9983 11.5366 11.6477 14.8711 7.53159 14.8711C7.53122 14.8711 7.53172 14.8711 7.53159 14.8711H7.52823C6.27834 14.8706 5.05008 14.5584 3.95927 13.9665L0 15Z" fill="#64B161"/>
<path fill-rule="evenodd" clip-rule="evenodd" d="M5.5944 4.19421C5.44955 3.87215 5.29698 3.86568 5.1591 3.86008C5.04635 3.85522 4.9173 3.85547 4.7885 3.85547C4.65958 3.85547 4.45001 3.904 4.2728 4.09752C4.09547 4.29103 3.5957 4.75894 3.5957 5.71056C3.5957 6.66231 4.28886 7.58183 4.38555 7.71101C4.48224 7.84005 5.72357 9.85531 7.68942 10.6306C9.32325 11.275 9.65564 11.1468 10.0103 11.1146C10.365 11.0823 11.1546 10.6466 11.3157 10.195C11.477 9.74343 11.477 9.35641 11.4286 9.27539C11.3802 9.19488 11.2513 9.14647 11.0579 9.04978C10.8645 8.95308 9.91361 8.48505 9.73628 8.42059C9.55894 8.356 9.43002 8.32389 9.3011 8.51753C9.17205 8.71092 8.8017 9.14647 8.68883 9.27539C8.57596 9.40469 8.46309 9.42087 8.2697 9.32405C8.07632 9.22711 7.45335 9.02302 6.7144 8.36409C6.13947 7.8515 5.7512 7.21833 5.63833 7.02469C5.52558 6.83131 5.63646 6.73574 5.72333 6.63008C5.87975 6.43981 6.1422 6.09771 6.20667 5.96878C6.27113 5.83961 6.2389 5.72674 6.19061 5.62992C6.1422 5.53323 5.76626 4.57675 5.5944 4.19421Z" fill="white"/>
</svg>
